<svg width="123" height="32" viewBox="0 0 123 32" fill="none" xmlns="http://www.w3.org/2000/svg">
<path d="M22.3542 12.2511V6.08304L11.4486 0L0.542969 6.08304V24.96L11.4486 31.043L22.3542 24.96V14.4076H18.1014V9.63687L11.4486 5.92593L4.79586 9.63687V21.1523L10.3246 24.236V21.2096L6.92231 19.3119V16.6256H15.9749V19.3119L12.5118 21.2435V24.2699L18.1014 21.1523V16.6256H20.2278V23.1196L11.4486 28.0166L2.66942 23.1196V7.92342L11.4486 3.02704L20.2278 7.92342V12.2511H22.3542ZM6.92231 14.4076V11.4772L11.4486 8.95297L15.9749 11.4772V14.4076H6.92231Z" fill="#E5D6D6"/>
<path d="M120.062 6.73438H120.904V17.0802C120.904 17.4763 120.987 17.7513 121.152 17.9053C121.317 18.0483 121.531 18.1198 121.795 18.1198C121.971 18.1198 122.153 18.1033 122.34 18.0703C122.527 18.0373 122.692 17.9933 122.835 17.9383L123 18.6148C122.813 18.6808 122.582 18.7413 122.307 18.7963C122.032 18.8513 121.795 18.8788 121.597 18.8788C121.135 18.8788 120.761 18.7413 120.475 18.4663C120.2 18.1803 120.062 17.8008 120.062 17.3278V6.73438Z" fill="#E5D6D6"/>
<path d="M110.426 16.3045C110.426 15.7875 110.58 15.342 110.888 14.968C111.196 14.5829 111.619 14.2859 112.158 14.0769C112.697 13.8569 113.319 13.7469 114.023 13.7469C114.463 13.7469 114.919 13.7854 115.392 13.8624C115.865 13.9394 116.289 14.0439 116.663 14.1759V13.3674C116.663 12.5754 116.432 11.9428 115.97 11.4698C115.519 10.9968 114.892 10.7603 114.089 10.7603C113.66 10.7603 113.214 10.8483 112.752 11.0243C112.29 11.2003 111.817 11.4533 111.333 11.7833L110.987 11.1893C111.548 10.8153 112.087 10.5348 112.604 10.3478C113.132 10.1498 113.654 10.0508 114.171 10.0508C115.194 10.0508 116.003 10.3533 116.597 10.9583C117.191 11.5633 117.488 12.3884 117.488 13.4334V17.6906C117.488 17.8226 117.516 17.9216 117.571 17.9876C117.637 18.0536 117.73 18.0921 117.851 18.1031V18.7796C117.752 18.7906 117.67 18.7961 117.604 18.7961C117.538 18.7961 117.483 18.7961 117.439 18.7961C117.23 18.7631 117.065 18.6751 116.944 18.5321C116.834 18.3891 116.773 18.2296 116.762 18.0536V17.377C116.366 17.8721 115.854 18.2571 115.227 18.5321C114.611 18.8071 113.962 18.9446 113.28 18.9446C112.741 18.9446 112.252 18.8291 111.812 18.5981C111.383 18.3671 111.042 18.0536 110.789 17.6576C110.547 17.2505 110.426 16.7995 110.426 16.3045ZM116.333 17.014C116.443 16.871 116.525 16.7335 116.581 16.6015C116.636 16.4695 116.663 16.3485 116.663 16.2385V14.8195C116.267 14.6654 115.854 14.5499 115.425 14.4729C114.996 14.3959 114.556 14.3574 114.105 14.3574C113.247 14.3574 112.549 14.5279 112.01 14.869C111.482 15.21 111.218 15.672 111.218 16.255C111.218 16.618 111.311 16.9535 111.498 17.2615C111.685 17.5696 111.944 17.8171 112.274 18.0041C112.615 18.1911 113.005 18.2846 113.445 18.2846C114.061 18.2846 114.628 18.1691 115.145 17.9381C115.673 17.6961 116.069 17.388 116.333 17.014Z" fill="#E5D6D6"/>
<path d="M109.674 18.3666C109.619 18.3886 109.509 18.4436 109.344 18.5316C109.179 18.6196 108.97 18.7021 108.717 18.7791C108.464 18.8451 108.184 18.8781 107.876 18.8781C107.579 18.8781 107.298 18.8231 107.034 18.7131C106.781 18.5921 106.578 18.4161 106.424 18.1851C106.27 17.9541 106.193 17.6736 106.193 17.3436V10.8753H104.988V10.1988H106.193V7.26172H107.018V10.1988H109.014V10.8753H107.018V17.1456C107.04 17.4646 107.155 17.7066 107.364 17.8716C107.573 18.0256 107.815 18.1026 108.09 18.1026C108.431 18.1026 108.728 18.0476 108.981 17.9376C109.234 17.8166 109.383 17.7396 109.427 17.7066L109.674 18.3666Z" fill="#E5D6D6"/>
<path d="M102.434 18.7798V10.1995H103.259V18.7798H102.434ZM102.434 8.25243V6.73438H103.259V8.25243H102.434Z" fill="#E5D6D6"/>
<path d="M96.5193 18.9446C95.7822 18.9446 95.1222 18.7521 94.5392 18.3671C93.9672 17.9711 93.5052 17.4925 93.1532 16.9315V22.2942H92.3281V10.1993H93.0872V11.9153C93.4392 11.3653 93.9067 10.9198 94.4897 10.5788C95.0727 10.2268 95.6887 10.0508 96.3378 10.0508C96.9428 10.0508 97.4928 10.1773 97.9878 10.4303C98.4828 10.6723 98.9119 11.0078 99.2749 11.4368C99.6489 11.8548 99.9349 12.3279 100.133 12.8559C100.342 13.3839 100.446 13.9339 100.446 14.5059C100.446 15.298 100.281 16.035 99.9514 16.717C99.6214 17.388 99.1594 17.9271 98.5653 18.3341C97.9823 18.7411 97.3003 18.9446 96.5193 18.9446ZM96.3213 18.2021C96.8273 18.2021 97.2783 18.0976 97.6743 17.8886C98.0813 17.6796 98.4278 17.399 98.7139 17.047C98.9999 16.695 99.2199 16.299 99.3739 15.859C99.5279 15.419 99.6049 14.968 99.6049 14.5059C99.6049 14.0109 99.5169 13.5434 99.3409 13.1034C99.1649 12.6524 98.9174 12.2564 98.5983 11.9153C98.2903 11.5743 97.9273 11.3048 97.5093 11.1068C97.1023 10.8978 96.6568 10.7933 96.1728 10.7933C95.8758 10.7933 95.5567 10.8538 95.2157 10.9748C94.8857 11.0958 94.5667 11.2663 94.2587 11.4863C93.9617 11.7063 93.7142 11.9593 93.5162 12.2454C93.3182 12.5204 93.1972 12.8064 93.1532 13.1034V15.925C93.3512 16.343 93.6042 16.728 93.9122 17.08C94.2312 17.421 94.5997 17.6961 95.0177 17.9051C95.4357 18.1031 95.8703 18.2021 96.3213 18.2021Z" fill="#E5D6D6"/>
<path d="M82.7578 16.3045C82.7578 15.7875 82.9118 15.342 83.2198 14.968C83.5278 14.5829 83.9514 14.2859 84.4904 14.0769C85.0294 13.8569 85.6509 13.7469 86.3549 13.7469C86.795 13.7469 87.2515 13.7854 87.7245 13.8624C88.1975 13.9394 88.621 14.0439 88.995 14.1759V13.3674C88.995 12.5754 88.764 11.9428 88.302 11.4698C87.851 10.9968 87.224 10.7603 86.4209 10.7603C85.9919 10.7603 85.5464 10.8483 85.0844 11.0243C84.6224 11.2003 84.1494 11.4533 83.6653 11.7833L83.3188 11.1893C83.8799 10.8153 84.4189 10.5348 84.9359 10.3478C85.4639 10.1498 85.9864 10.0508 86.5034 10.0508C87.5265 10.0508 88.335 10.3533 88.929 10.9583C89.5231 11.5633 89.8201 12.3884 89.8201 13.4334V17.6906C89.8201 17.8226 89.8476 17.9216 89.9026 17.9876C89.9686 18.0536 90.0621 18.0921 90.1831 18.1031V18.7796C90.0841 18.7906 90.0016 18.7961 89.9356 18.7961C89.8696 18.7961 89.8146 18.7961 89.7706 18.7961C89.5616 18.7631 89.3965 18.6751 89.2755 18.5321C89.1655 18.3891 89.105 18.2296 89.094 18.0536V17.377C88.698 17.8721 88.1865 18.2571 87.5595 18.5321C86.9435 18.8071 86.2944 18.9446 85.6124 18.9446C85.0734 18.9446 84.5839 18.8291 84.1439 18.5981C83.7148 18.3671 83.3738 18.0536 83.1208 17.6576C82.8788 17.2505 82.7578 16.7995 82.7578 16.3045ZM88.665 17.014C88.775 16.871 88.8575 16.7335 88.9125 16.6015C88.9675 16.4695 88.995 16.3485 88.995 16.2385V14.8195C88.599 14.6654 88.1865 14.5499 87.7575 14.4729C87.3285 14.3959 86.8885 14.3574 86.4374 14.3574C85.5794 14.3574 84.8809 14.5279 84.3419 14.869C83.8138 15.21 83.5498 15.672 83.5498 16.255C83.5498 16.618 83.6433 16.9535 83.8304 17.2615C84.0174 17.5696 84.2759 17.8171 84.6059 18.0041C84.9469 18.1911 85.3374 18.2846 85.7774 18.2846C86.3934 18.2846 86.96 18.1691 87.477 17.9381C88.005 17.6961 88.401 17.388 88.665 17.014Z" fill="#E5D6D6"/>
<path d="M78.1235 18.9446C77.5294 18.9446 76.9739 18.8291 76.4569 18.5981C75.9399 18.3561 75.4889 18.0316 75.1039 17.6246C74.7188 17.2065 74.4163 16.728 74.1963 16.189C73.9873 15.65 73.8828 15.0725 73.8828 14.4564C73.8828 13.6314 74.0643 12.8889 74.4273 12.2289C74.7903 11.5688 75.2909 11.0408 75.9289 10.6448C76.5669 10.2488 77.2929 10.0508 78.107 10.0508C78.888 10.0508 79.5755 10.2323 80.1695 10.5953C80.7636 10.9473 81.2091 11.4313 81.5061 12.0474L80.6976 12.3114C80.4445 11.8383 80.0815 11.4698 79.6085 11.2058C79.1465 10.9308 78.635 10.7933 78.074 10.7933C77.4469 10.7933 76.8804 10.9528 76.3744 11.2718C75.8684 11.5908 75.4614 12.0309 75.1534 12.5919C74.8563 13.1419 74.7078 13.7634 74.7078 14.4564C74.7078 15.1385 74.8618 15.7655 75.1699 16.3375C75.4779 16.9095 75.8849 17.366 76.3909 17.7071C76.9079 18.0371 77.4744 18.2021 78.0905 18.2021C78.4865 18.2021 78.8715 18.1306 79.2455 17.9876C79.6305 17.8336 79.9605 17.6356 80.2355 17.3935C80.5215 17.1515 80.7086 16.893 80.7966 16.618L81.6051 16.849C81.4621 17.256 81.2146 17.6191 80.8626 17.9381C80.5105 18.2461 80.098 18.4936 79.625 18.6806C79.163 18.8566 78.6625 18.9446 78.1235 18.9446Z" fill="#E5D6D6"/>
<path d="M72.5089 18.7798L69.1593 14.1926L67.1297 16.0572V18.7798H66.3047V6.73438H67.1297V15.1332L72.3604 10.216H73.3009L69.7203 13.6976L73.4164 18.7798H72.5089Z" fill="#E5D6D6"/>
<path d="M61.1157 18.9446C60.4337 18.9446 59.8012 18.8291 59.2181 18.5981C58.6351 18.3671 58.1236 18.0151 57.6836 17.542L58.0631 16.9645C58.5361 17.4155 59.0146 17.7456 59.4987 17.9546C59.9827 18.1526 60.5107 18.2516 61.0827 18.2516C61.8197 18.2516 62.4138 18.0976 62.8648 17.7896C63.3268 17.4815 63.5578 17.0525 63.5578 16.5025C63.5578 16.1285 63.4478 15.8425 63.2278 15.6445C63.0188 15.4355 62.7108 15.2705 62.3038 15.1495C61.9077 15.0175 61.4237 14.88 60.8517 14.7369C60.2687 14.5829 59.7737 14.4234 59.3667 14.2584C58.9706 14.0934 58.6736 13.8789 58.4756 13.6149C58.2776 13.3509 58.1786 12.9934 58.1786 12.5424C58.1786 11.9814 58.3161 11.5193 58.5911 11.1563C58.8771 10.7823 59.2566 10.5073 59.7297 10.3313C60.2137 10.1443 60.7472 10.0508 61.3302 10.0508C62.0012 10.0508 62.5843 10.1608 63.0793 10.3808C63.5853 10.6008 63.9703 10.8923 64.2343 11.2553L63.7888 11.7833C63.5138 11.4313 63.1563 11.1728 62.7163 11.0078C62.2763 10.8318 61.7922 10.7438 61.2642 10.7438C60.8682 10.7438 60.4942 10.7988 60.1422 10.9088C59.7902 11.0188 59.5042 11.2003 59.2842 11.4533C59.0751 11.6953 58.9706 12.0254 58.9706 12.4434C58.9706 12.7734 59.0476 13.0319 59.2016 13.2189C59.3667 13.4059 59.6087 13.5599 59.9277 13.6809C60.2467 13.7909 60.6427 13.9119 61.1157 14.0439C61.7867 14.2089 62.3643 14.3794 62.8483 14.5554C63.3323 14.7314 63.7063 14.9625 63.9703 15.2485C64.2343 15.5235 64.3663 15.914 64.3663 16.42C64.3663 17.201 64.0693 17.8171 63.4753 18.2681C62.8813 18.7191 62.0948 18.9446 61.1157 18.9446Z" fill="#E5D6D6"/>
<path d="M54.9922 18.7798V10.1995H55.8172V18.7798H54.9922ZM54.9922 8.25243V6.73438H55.8172V8.25243H54.9922Z" fill="#E5D6D6"/>
<path d="M53.4302 10.9435C52.6602 10.9655 51.9837 11.1965 51.4007 11.6365C50.8286 12.0655 50.4271 12.6596 50.1961 13.4186V18.7813H49.3711V10.201H50.1631V12.313C50.4601 11.708 50.8561 11.2185 51.3512 10.8445C51.8462 10.4595 52.3687 10.2395 52.9187 10.1845C53.0287 10.1735 53.1277 10.168 53.2157 10.168C53.3037 10.168 53.3752 10.168 53.4302 10.168V10.9435Z" fill="#E5D6D6"/>
<path d="M39.0195 16.2216C39.0195 15.6606 39.1735 15.1711 39.4815 14.753C39.8006 14.324 40.2406 13.994 40.8016 13.763C41.3626 13.532 42.0061 13.4165 42.7322 13.4165C43.0952 13.4165 43.4637 13.444 43.8377 13.499C44.2117 13.554 44.5362 13.642 44.8112 13.763V13.301C44.8112 12.751 44.6462 12.3275 44.3162 12.0304C43.9972 11.7334 43.5187 11.5849 42.8807 11.5849C42.4077 11.5849 41.9566 11.6674 41.5276 11.8324C41.0986 11.9974 40.6476 12.2395 40.1746 12.5585L39.465 11.1064C40.0371 10.7324 40.6201 10.4519 41.2141 10.2649C41.8191 10.0779 42.4517 9.98438 43.1117 9.98438C44.3437 9.98438 45.3008 10.2924 45.9828 10.9084C46.6758 11.5244 47.0223 12.4045 47.0223 13.5485V16.3041C47.0223 16.5351 47.0608 16.7001 47.1378 16.7991C47.2258 16.8981 47.3633 16.9586 47.5503 16.9806V18.7792C47.3523 18.8122 47.1708 18.8397 47.0058 18.8617C46.8518 18.8837 46.7198 18.8947 46.6098 18.8947C46.1698 18.8947 45.8343 18.7957 45.6033 18.5977C45.3833 18.3997 45.2458 18.1577 45.1908 17.8717L45.1412 17.4261C44.7672 17.9102 44.2997 18.2842 43.7387 18.5482C43.1777 18.8122 42.6057 18.9442 42.0226 18.9442C41.4506 18.9442 40.9336 18.8287 40.4716 18.5977C40.0206 18.3557 39.6631 18.0312 39.399 17.6241C39.146 17.2061 39.0195 16.7386 39.0195 16.2216ZM44.3987 16.6671C44.5197 16.5351 44.6187 16.4031 44.6957 16.2711C44.7727 16.1391 44.8112 16.0181 44.8112 15.9081V15.0336C44.5472 14.9236 44.2612 14.841 43.9532 14.786C43.6452 14.72 43.3537 14.687 43.0787 14.687C42.5067 14.687 42.0336 14.8135 41.6596 15.0666C41.2966 15.3086 41.1151 15.6331 41.1151 16.0401C41.1151 16.2601 41.1756 16.4691 41.2966 16.6671C41.4176 16.8651 41.5936 17.0246 41.8246 17.1456C42.0556 17.2666 42.3306 17.3271 42.6497 17.3271C42.9797 17.3271 43.3042 17.2666 43.6232 17.1456C43.9422 17.0136 44.2007 16.8541 44.3987 16.6671Z" fill="#E5D6D6"/>
<path d="M32.5387 18.8287C31.9666 18.8287 31.4386 18.7187 30.9546 18.4987C30.4816 18.2677 30.0691 17.9487 29.7171 17.5416C29.3761 17.1346 29.112 16.6671 28.925 16.1391C28.738 15.6111 28.6445 15.0501 28.6445 14.456C28.6445 13.829 28.7435 13.246 28.9415 12.707C29.1395 12.168 29.4146 11.6949 29.7666 11.2879C30.1296 10.8699 30.5531 10.5509 31.0371 10.3309C31.5321 10.0999 32.0767 9.98438 32.6707 9.98438C33.3417 9.98438 33.9302 10.1384 34.4362 10.4464C34.9423 10.7434 35.3603 11.1449 35.6903 11.6509V10.1329H37.6209V18.3667C37.6209 19.2247 37.4118 19.9562 36.9938 20.5613C36.5868 21.1773 36.0203 21.6448 35.2943 21.9638C34.5682 22.2938 33.7432 22.4588 32.8192 22.4588C31.8841 22.4588 31.0921 22.2993 30.4431 21.9803C29.7941 21.6723 29.2386 21.2323 28.7765 20.6603L29.9811 19.4887C30.3111 19.8957 30.7236 20.2147 31.2186 20.4457C31.7246 20.6768 32.2582 20.7923 32.8192 20.7923C33.2922 20.7923 33.7212 20.7043 34.1062 20.5283C34.5022 20.3632 34.8158 20.0992 35.0468 19.7362C35.2888 19.3842 35.4098 18.9277 35.4098 18.3667V17.2776C35.1238 17.7727 34.7167 18.1577 34.1887 18.4327C33.6717 18.6967 33.1217 18.8287 32.5387 18.8287ZM33.2812 17.0631C33.5232 17.0631 33.7542 17.0246 33.9742 16.9476C34.1942 16.8706 34.3977 16.7661 34.5847 16.6341C34.7717 16.5021 34.9368 16.3481 35.0798 16.1721C35.2228 15.9851 35.3328 15.7981 35.4098 15.6111V13.5485C35.2778 13.2075 35.0908 12.9105 34.8488 12.6575C34.6177 12.4045 34.3537 12.212 34.0567 12.08C33.7707 11.9369 33.4682 11.8654 33.1492 11.8654C32.8082 11.8654 32.5002 11.9369 32.2252 12.08C31.9501 12.223 31.7136 12.4265 31.5156 12.6905C31.3176 12.9435 31.1636 13.2295 31.0536 13.5485C30.9546 13.8565 30.9051 14.181 30.9051 14.522C30.9051 14.874 30.9656 15.2041 31.0866 15.5121C31.2076 15.8201 31.3726 16.0896 31.5816 16.3206C31.8016 16.5516 32.0547 16.7331 32.3407 16.8651C32.6377 16.9971 32.9512 17.0631 33.2812 17.0631Z" fill="#E5D6D6"/>
</svg>
