<svg width="535" height="761" viewBox="0 0 535 761" fill="none" xmlns="http://www.w3.org/2000/svg">
<path d="M534.524 300.235V149.076L267.262 0L0 149.076V611.689L267.262 760.765L534.524 611.689V353.083H430.3V236.169L267.262 145.225L104.225 236.169V518.375L239.717 593.948V519.78L156.337 473.274V407.441H378.187V473.274L293.318 520.61V594.778L430.3 518.375V407.441H482.412V566.588L267.262 686.597L52.1124 566.588V194.178L267.262 74.1831L482.412 194.178V300.235H534.524ZM156.337 353.083V281.27L267.262 219.408L378.187 281.27V353.083H156.337Z" fill="url(#paint0_linear_333_620)"/>
<defs>
<linearGradient id="paint0_linear_333_620" x1="154.016" y1="18.1135" x2="366.789" y2="760.803" gradientUnits="userSpaceOnUse">
<stop stop-color="#F3D59B"/>
<stop offset="1" stop-color="#AB763C"/>
</linearGradient>
</defs>
</svg>
