<svg width="237" height="60" viewBox="0 0 237 60" fill="none" xmlns="http://www.w3.org/2000/svg">
<path d="M42.1569 23.6789V11.7573L21.0784 0L0 11.7573V48.2427L21.0784 60L42.1569 48.2427V27.8469H33.9369V18.6262L21.0784 11.4536L8.22 18.6262V40.8832L18.906 46.8434V40.994L12.33 37.3261V32.134H29.8269V37.3261L23.1334 41.0595V46.9089L33.9369 40.8832V32.134H38.0469V44.6856L21.0784 54.1505L4.11 44.6856V15.3144L21.0784 5.85067L38.0469 15.3144V23.6789H42.1569ZM12.33 27.8469V22.1832L21.0784 17.3043L29.8269 22.1832V27.8469H12.33Z" fill="url(#paint0_linear_441_1674)"/>
<path d="M231.004 5.35938H232.63V25.3559C232.63 26.1213 232.79 26.6528 233.109 26.9505C233.428 27.2269 233.842 27.3651 234.353 27.3651C234.693 27.3651 235.044 27.3332 235.405 27.2694C235.766 27.2056 236.085 27.1206 236.362 27.0143L236.681 28.3219C236.319 28.4494 235.873 28.5664 235.341 28.6727C234.81 28.779 234.353 28.8321 233.97 28.8321C233.077 28.8321 232.354 28.5664 231.801 28.0348C231.27 27.482 231.004 26.7485 231.004 25.8343V5.35938Z" fill="#E5D6D6"/>
<path d="M212.379 23.8606C212.379 22.8613 212.677 22.0003 213.272 21.2774C213.867 20.5332 214.686 19.9591 215.728 19.5552C216.769 19.1299 217.971 18.9173 219.331 18.9173C220.182 18.9173 221.064 18.9917 221.979 19.1406C222.893 19.2894 223.711 19.4914 224.434 19.7465V18.1838C224.434 16.653 223.988 15.4304 223.095 14.5162C222.223 13.6019 221.011 13.1448 219.459 13.1448C218.63 13.1448 217.769 13.3149 216.876 13.6551C215.983 13.9953 215.069 14.4843 214.133 15.1221L213.463 13.974C214.548 13.2511 215.589 12.7089 216.589 12.3475C217.609 11.9648 218.619 11.7734 219.618 11.7734C221.596 11.7734 223.159 12.3581 224.307 13.5275C225.455 14.6969 226.029 16.2915 226.029 18.3114V26.5396C226.029 26.7947 226.082 26.9861 226.188 27.1137C226.316 27.2412 226.497 27.3156 226.73 27.3369V28.6445C226.539 28.6658 226.38 28.6764 226.252 28.6764C226.125 28.6764 226.018 28.6764 225.933 28.6764C225.529 28.6126 225.21 28.4425 224.976 28.1661C224.764 27.8897 224.647 27.5814 224.626 27.2412V25.9336C223.86 26.8904 222.872 27.6346 221.66 28.1661C220.469 28.6976 219.215 28.9634 217.896 28.9634C216.854 28.9634 215.908 28.7402 215.058 28.2937C214.229 27.8472 213.57 27.2412 213.081 26.4758C212.613 25.6891 212.379 24.8174 212.379 23.8606ZM223.796 25.232C224.009 24.9556 224.168 24.6898 224.275 24.4347C224.381 24.1796 224.434 23.9457 224.434 23.7331V20.9903C223.669 20.6927 222.871 20.4694 222.042 20.3206C221.213 20.1718 220.363 20.0973 219.491 20.0973C217.833 20.0973 216.482 20.4269 215.441 21.086C214.42 21.7451 213.91 22.6381 213.91 23.765C213.91 24.4666 214.09 25.1151 214.452 25.7104C214.813 26.3057 215.313 26.7841 215.951 27.1456C216.61 27.507 217.365 27.6877 218.215 27.6877C219.406 27.6877 220.501 27.4645 221.5 27.018C222.521 26.5502 223.286 25.9549 223.796 25.232Z" fill="#E5D6D6"/>
<path d="M210.932 27.8464C210.826 27.8889 210.614 27.9952 210.295 28.1653C209.976 28.3354 209.572 28.4948 209.083 28.6437C208.594 28.7712 208.051 28.835 207.456 28.835C206.882 28.835 206.34 28.7287 205.83 28.5161C205.341 28.2822 204.947 27.942 204.65 27.4956C204.352 27.0491 204.203 26.5069 204.203 25.869V13.3672H201.875V12.0597H204.203V6.38281H205.798V12.0597H209.657V13.3672H205.798V25.4863C205.84 26.1029 206.064 26.5707 206.467 26.8896C206.871 27.1873 207.339 27.3361 207.871 27.3361C208.53 27.3361 209.104 27.2298 209.593 27.0172C210.082 26.7833 210.369 26.6345 210.454 26.5707L210.932 27.8464Z" fill="#E5D6D6"/>
<path d="M196.93 28.6408V12.0568H198.524V28.6408H196.93ZM196.93 8.29347V5.35938H198.524V8.29347H196.93Z" fill="#E5D6D6"/>
<path d="M185.503 28.9634C184.078 28.9634 182.803 28.5913 181.676 27.8472C180.57 27.0818 179.677 26.1569 178.997 25.0725V35.4376H177.402V12.0605H178.869V15.3773C179.55 14.3142 180.453 13.4531 181.58 12.794C182.707 12.1136 183.898 11.7734 185.152 11.7734C186.322 11.7734 187.385 12.0179 188.341 12.507C189.298 12.9747 190.127 13.6232 190.829 14.4524C191.552 15.2603 192.105 16.1746 192.487 17.1951C192.891 18.2157 193.093 19.2788 193.093 20.3844C193.093 21.9152 192.774 23.3397 192.137 24.6579C191.499 25.9549 190.606 26.9967 189.458 27.7834C188.331 28.5701 187.013 28.9634 185.503 28.9634ZM185.12 27.5283C186.098 27.5283 186.97 27.3263 187.735 26.9223C188.522 26.5183 189.192 25.9762 189.745 25.2958C190.297 24.6154 190.723 23.85 191.02 22.9995C191.318 22.1491 191.467 21.2774 191.467 20.3844C191.467 19.4276 191.297 18.524 190.957 17.6735C190.616 16.8018 190.138 16.0364 189.521 15.3773C188.926 14.7182 188.224 14.1973 187.417 13.8145C186.63 13.4106 185.769 13.2086 184.833 13.2086C184.259 13.2086 183.643 13.3255 182.984 13.5594C182.346 13.7933 181.729 14.1228 181.134 14.5481C180.56 14.9733 180.081 15.4623 179.699 16.0151C179.316 16.5467 179.082 17.0995 178.997 17.6735V23.1271C179.38 23.9351 179.869 24.6792 180.464 25.3596C181.081 26.0187 181.793 26.5502 182.601 26.9542C183.409 27.3369 184.249 27.5283 185.12 27.5283Z" fill="#E5D6D6"/>
<path d="M158.902 23.8606C158.902 22.8613 159.2 22.0003 159.795 21.2774C160.391 20.5332 161.209 19.9591 162.251 19.5552C163.293 19.1299 164.494 18.9173 165.855 18.9173C166.705 18.9173 167.588 18.9917 168.502 19.1406C169.416 19.2894 170.235 19.4914 170.958 19.7465V18.1838C170.958 16.653 170.511 15.4304 169.618 14.5162C168.746 13.6019 167.535 13.1448 165.982 13.1448C165.153 13.1448 164.292 13.3149 163.399 13.6551C162.506 13.9953 161.592 14.4843 160.656 15.1221L159.987 13.974C161.071 13.2511 162.113 12.7089 163.112 12.3475C164.133 11.9648 165.143 11.7734 166.142 11.7734C168.119 11.7734 169.682 12.3581 170.83 13.5275C171.978 14.6969 172.552 16.2915 172.552 18.3114V26.5396C172.552 26.7947 172.605 26.9861 172.712 27.1137C172.839 27.2412 173.02 27.3156 173.254 27.3369V28.6445C173.063 28.6658 172.903 28.6764 172.776 28.6764C172.648 28.6764 172.542 28.6764 172.457 28.6764C172.053 28.6126 171.734 28.4425 171.5 28.1661C171.287 27.8897 171.17 27.5814 171.149 27.2412V25.9336C170.384 26.8904 169.395 27.6346 168.183 28.1661C166.992 28.6976 165.738 28.9634 164.42 28.9634C163.378 28.9634 162.432 28.7402 161.581 28.2937C160.752 27.8472 160.093 27.2412 159.604 26.4758C159.136 25.6891 158.902 24.8174 158.902 23.8606ZM170.32 25.232C170.532 24.9556 170.692 24.6898 170.798 24.4347C170.904 24.1796 170.958 23.9457 170.958 23.7331V20.9903C170.192 20.6927 169.395 20.4694 168.566 20.3206C167.737 20.1718 166.886 20.0973 166.014 20.0973C164.356 20.0973 163.006 20.4269 161.964 21.086C160.943 21.7451 160.433 22.6381 160.433 23.765C160.433 24.4666 160.614 25.1151 160.975 25.7104C161.337 26.3057 161.836 26.7841 162.474 27.1456C163.133 27.507 163.888 27.6877 164.739 27.6877C165.929 27.6877 167.024 27.4645 168.024 27.018C169.044 26.5502 169.81 25.9549 170.32 25.232Z" fill="#E5D6D6"/>
<path d="M149.942 28.9634C148.794 28.9634 147.721 28.7402 146.721 28.2937C145.722 27.8259 144.85 27.1987 144.106 26.412C143.362 25.6041 142.777 24.6792 142.352 23.6374C141.948 22.5956 141.746 21.4793 141.746 20.2887C141.746 18.6941 142.097 17.2589 142.799 15.9832C143.5 14.7075 144.468 13.687 145.701 12.9216C146.934 12.1561 148.337 11.7734 149.911 11.7734C151.42 11.7734 152.749 12.1243 153.897 12.8259C155.045 13.5063 155.906 14.4418 156.48 15.6324L154.918 16.1427C154.429 15.2284 153.727 14.5162 152.813 14.0059C151.92 13.4744 150.931 13.2086 149.847 13.2086C148.635 13.2086 147.54 13.5169 146.562 14.1335C145.584 14.7501 144.797 15.6005 144.202 16.6849C143.628 17.7479 143.341 18.9492 143.341 20.2887C143.341 21.6069 143.638 22.8188 144.234 23.9244C144.829 25.03 145.616 25.9124 146.594 26.5715C147.593 27.2093 148.688 27.5283 149.879 27.5283C150.644 27.5283 151.388 27.3901 152.111 27.1137C152.855 26.816 153.493 26.4333 154.025 25.9655C154.577 25.4978 154.939 24.9981 155.109 24.4666L156.672 24.9131C156.395 25.6998 155.917 26.4014 155.237 27.018C154.556 27.6133 153.759 28.0917 152.845 28.4531C151.952 28.7933 150.984 28.9634 149.942 28.9634Z" fill="#E5D6D6"/>
<path d="M139.093 28.6408L132.619 19.7747L128.696 23.3786V28.6408H127.102V5.35938H128.696V21.5926L138.806 12.0887H140.624L133.703 18.8179L140.847 28.6408H139.093Z" fill="#E5D6D6"/>
<path d="M117.071 28.9634C115.753 28.9634 114.53 28.7402 113.403 28.2937C112.277 27.8472 111.288 27.1668 110.438 26.2526L111.171 25.1363C112.085 26.0081 113.01 26.6459 113.946 27.0499C114.881 27.4326 115.902 27.6239 117.007 27.6239C118.432 27.6239 119.58 27.3263 120.452 26.731C121.345 26.1356 121.791 25.3064 121.791 24.2433C121.791 23.5205 121.579 22.9677 121.153 22.5849C120.749 22.181 120.154 21.8621 119.367 21.6282C118.602 21.373 117.666 21.1073 116.561 20.8309C115.434 20.5332 114.477 20.2249 113.691 19.906C112.925 19.5871 112.351 19.1725 111.968 18.6622C111.586 18.1519 111.394 17.4609 111.394 16.5892C111.394 15.5048 111.66 14.6119 112.192 13.9102C112.744 13.1873 113.478 12.6558 114.392 12.3156C115.328 11.9542 116.359 11.7734 117.486 11.7734C118.783 11.7734 119.91 11.9861 120.866 12.4113C121.844 12.8365 122.588 13.3999 123.099 14.1016L122.238 15.1221C121.706 14.4418 121.015 13.9421 120.165 13.6232C119.314 13.283 118.379 13.1129 117.358 13.1129C116.593 13.1129 115.87 13.2192 115.189 13.4318C114.509 13.6445 113.956 13.9953 113.531 14.4843C113.127 14.952 112.925 15.5899 112.925 16.3978C112.925 17.0357 113.074 17.5353 113.372 17.8968C113.691 18.2582 114.158 18.5559 114.775 18.7898C115.391 19.0024 116.157 19.2362 117.071 19.4914C118.368 19.8103 119.484 20.1399 120.42 20.48C121.355 20.8202 122.078 21.2667 122.588 21.8195C123.099 22.3511 123.354 23.1059 123.354 24.0839C123.354 25.5935 122.78 26.7841 121.632 27.6558C120.484 28.5276 118.963 28.9634 117.071 28.9634Z" fill="#E5D6D6"/>
<path d="M105.238 28.6408V12.0568H106.833V28.6408H105.238ZM105.238 8.29347V5.35938H106.833V8.29347H105.238Z" fill="#E5D6D6"/>
<path d="M102.213 13.495C100.724 13.5376 99.4168 13.984 98.2899 14.8345C97.1843 15.6637 96.4083 16.8118 95.9618 18.2789V28.6439H94.3672V12.0599H95.898V16.1421C96.4721 14.9727 97.2375 14.0266 98.1943 13.3037C99.151 12.5595 100.161 12.1343 101.224 12.028C101.437 12.0067 101.628 11.9961 101.798 11.9961C101.968 11.9961 102.106 11.9961 102.213 11.9961V13.495Z" fill="#E5D6D6"/>
<path d="M74.3672 23.6998C74.3672 22.6155 74.6648 21.6694 75.2602 20.8614C75.8768 20.0322 76.7272 19.3944 77.8116 18.9479C78.8959 18.5014 80.1397 18.2781 81.543 18.2781C82.2446 18.2781 82.9569 18.3313 83.6798 18.4376C84.4026 18.5439 85.0299 18.714 85.5614 18.9479V18.0549C85.5614 16.9918 85.2425 16.1732 84.6046 15.5992C83.988 15.0251 83.0632 14.7381 81.83 14.7381C80.9158 14.7381 80.044 14.8976 79.2148 15.2165C78.3856 15.5354 77.5139 16.0032 76.5997 16.6197L75.2283 13.8132C76.3339 13.0903 77.4607 12.5481 78.6089 12.1867C79.7783 11.8253 81.0008 11.6445 82.2765 11.6445C84.6578 11.6445 86.5075 12.2399 87.8258 13.4305C89.1652 14.6212 89.835 16.3221 89.835 18.5333V23.8593C89.835 24.3058 89.9094 24.6247 90.0582 24.8161C90.2283 25.0074 90.4941 25.1244 90.8555 25.1669V28.6432C90.4728 28.7069 90.122 28.7601 89.8031 28.8026C89.5054 28.8451 89.2503 28.8664 89.0377 28.8664C88.1872 28.8664 87.5387 28.675 87.0922 28.2923C86.667 27.9096 86.4012 27.4419 86.2949 26.8891L86.1993 26.028C85.4764 26.9635 84.5727 27.6864 83.4884 28.1967C82.4041 28.7069 81.2985 28.9621 80.1716 28.9621C79.066 28.9621 78.0667 28.7388 77.1737 28.2923C76.302 27.8246 75.611 27.1974 75.1007 26.4107C74.6117 25.6028 74.3672 24.6991 74.3672 23.6998ZM84.7641 24.5609C84.998 24.3058 85.1893 24.0507 85.3382 23.7955C85.487 23.5404 85.5614 23.3065 85.5614 23.0939V21.4036C85.0511 21.191 84.4983 21.0315 83.903 20.9252C83.3077 20.7976 82.7442 20.7339 82.2127 20.7339C81.1071 20.7339 80.1929 20.9784 79.47 21.4674C78.7683 21.9351 78.4175 22.5623 78.4175 23.349C78.4175 23.7743 78.5345 24.1782 78.7683 24.5609C79.0022 24.9436 79.3424 25.2519 79.7889 25.4858C80.2354 25.7197 80.7669 25.8366 81.3835 25.8366C82.0214 25.8366 82.6486 25.7197 83.2652 25.4858C83.8817 25.2307 84.3814 24.9224 84.7641 24.5609Z" fill="#E5D6D6"/>
<path d="M61.8391 28.7388C60.7335 28.7388 59.7129 28.5262 58.7774 28.101C57.8632 27.6545 57.0659 27.0379 56.3855 26.2512C55.7264 25.4646 55.2161 24.5609 54.8547 23.5404C54.4932 22.5198 54.3125 21.4355 54.3125 20.2874C54.3125 19.0755 54.5039 17.9486 54.8866 16.9068C55.2693 15.865 55.8008 14.9507 56.4812 14.164C57.1828 13.3561 58.0014 12.7395 58.9369 12.3143C59.8937 11.8678 60.9461 11.6445 62.0942 11.6445C63.3912 11.6445 64.5287 11.9422 65.5067 12.5375C66.4847 13.1116 67.2927 13.8876 67.9305 14.8657V11.9316H71.6619V27.8458C71.6619 29.5043 71.258 30.9181 70.45 32.0875C69.6634 33.2782 68.5684 34.1818 67.1651 34.7984C65.7619 35.4362 64.1672 35.7552 62.3813 35.7552C60.574 35.7552 59.0432 35.4469 57.7888 34.8303C56.5343 34.2349 55.4606 33.3845 54.5676 32.2789L56.8958 30.0145C57.5336 30.8012 58.3309 31.4178 59.2877 31.8643C60.2657 32.3108 61.2969 32.534 62.3813 32.534C63.2955 32.534 64.1247 32.3639 64.8689 32.0238C65.6343 31.7048 66.2402 31.1945 66.6867 30.4929C67.1545 29.8125 67.3884 28.9302 67.3884 27.8458V25.741C66.8356 26.6977 66.0489 27.4419 65.0283 27.9734C64.029 28.4837 62.966 28.7388 61.8391 28.7388ZM63.2742 25.3264C63.742 25.3264 64.1885 25.2519 64.6137 25.1031C65.039 24.9543 65.4323 24.7523 65.7937 24.4972C66.1552 24.242 66.4741 23.9444 66.7505 23.6042C67.0269 23.2427 67.2395 22.8813 67.3884 22.5198V18.5333C67.1332 17.8742 66.7718 17.3001 66.304 16.8111C65.8575 16.3221 65.3473 15.95 64.7732 15.6949C64.2204 15.4185 63.6357 15.2803 63.0191 15.2803C62.36 15.2803 61.7647 15.4185 61.2331 15.6949C60.7016 15.9713 60.2445 16.3646 59.8618 16.8749C59.4791 17.3639 59.1814 17.9167 58.9688 18.5333C58.7774 19.1286 58.6818 19.7558 58.6818 20.4149C58.6818 21.0953 58.7987 21.7331 59.0326 22.3285C59.2664 22.9238 59.5854 23.4447 59.9893 23.8912C60.4146 24.3377 60.9036 24.6885 61.4564 24.9436C62.0304 25.1988 62.6364 25.3264 63.2742 25.3264Z" fill="#E5D6D6"/>
<path d="M233.109 38.1875H233.709V45.5556C233.709 45.8376 233.767 46.0335 233.885 46.1431C234.002 46.245 234.155 46.2959 234.343 46.2959C234.469 46.2959 234.598 46.2842 234.731 46.2607C234.864 46.2372 234.982 46.2058 235.084 46.1667L235.201 46.6485C235.068 46.6955 234.903 46.7386 234.708 46.7777C234.512 46.8169 234.343 46.8365 234.202 46.8365C233.873 46.8365 233.607 46.7386 233.403 46.5427C233.207 46.339 233.109 46.0687 233.109 45.7319V38.1875Z" fill="white"/>
<path d="M226.246 45.0045C226.246 44.6363 226.356 44.319 226.575 44.0527C226.794 43.7785 227.096 43.567 227.48 43.4181C227.864 43.2614 228.306 43.1831 228.808 43.1831C229.121 43.1831 229.446 43.2105 229.783 43.2653C230.12 43.3202 230.422 43.3946 230.688 43.4886V42.9128C230.688 42.3487 230.524 41.8983 230.195 41.5614C229.873 41.2245 229.427 41.0561 228.855 41.0561C228.549 41.0561 228.232 41.1188 227.903 41.2441C227.574 41.3695 227.237 41.5496 226.892 41.7847L226.646 41.3616C227.045 41.0953 227.429 40.8955 227.797 40.7623C228.173 40.6213 228.545 40.5508 228.914 40.5508C229.642 40.5508 230.218 40.7662 230.641 41.1971C231.064 41.628 231.276 42.2156 231.276 42.9598V45.9916C231.276 46.0857 231.295 46.1562 231.334 46.2032C231.381 46.2502 231.448 46.2776 231.534 46.2854V46.7672C231.464 46.7751 231.405 46.779 231.358 46.779C231.311 46.779 231.272 46.779 231.24 46.779C231.092 46.7555 230.974 46.6928 230.888 46.591C230.81 46.4891 230.766 46.3755 230.759 46.2502V45.7684C230.477 46.1209 230.112 46.3951 229.666 46.591C229.227 46.7868 228.765 46.8847 228.279 46.8847C227.895 46.8847 227.547 46.8025 227.233 46.638C226.928 46.4735 226.685 46.2502 226.505 45.9681C226.332 45.6783 226.246 45.3571 226.246 45.0045ZM230.453 45.5098C230.531 45.408 230.59 45.3101 230.629 45.2161C230.669 45.122 230.688 45.0359 230.688 44.9575V43.9469C230.406 43.8372 230.112 43.755 229.807 43.7001C229.501 43.6453 229.188 43.6179 228.867 43.6179C228.256 43.6179 227.758 43.7393 227.374 43.9822C226.998 44.225 226.81 44.5541 226.81 44.9693C226.81 45.2278 226.877 45.4668 227.01 45.6861C227.143 45.9055 227.327 46.0817 227.562 46.2149C227.805 46.3481 228.083 46.4147 228.397 46.4147C228.835 46.4147 229.239 46.3324 229.607 46.1679C229.983 45.9956 230.265 45.7762 230.453 45.5098Z" fill="white"/>
<path d="M225.712 46.4711C225.673 46.4868 225.595 46.526 225.477 46.5887C225.36 46.6513 225.211 46.7101 225.031 46.7649C224.851 46.8119 224.651 46.8354 224.431 46.8354C224.22 46.8354 224.02 46.7963 223.832 46.7179C223.652 46.6317 223.507 46.5064 223.397 46.3419C223.288 46.1774 223.233 45.9776 223.233 45.7426V41.136H222.375V40.6542H223.233V38.5625H223.82V40.6542H225.242V41.136H223.82V45.6015C223.836 45.8287 223.918 46.0011 224.067 46.1186C224.216 46.2283 224.388 46.2831 224.584 46.2831C224.827 46.2831 225.039 46.244 225.219 46.1656C225.399 46.0794 225.505 46.0246 225.536 46.0011L225.712 46.4711Z" fill="white"/>
<path d="M220.555 46.766V40.6553H221.142V46.766H220.555ZM220.555 39.2686V38.1875H221.142V39.2686H220.555Z" fill="white"/>
<path d="M216.344 46.8847C215.819 46.8847 215.349 46.7476 214.934 46.4735C214.527 46.1914 214.198 45.8506 213.947 45.4511V49.2703H213.359V40.6565H213.9V41.8787C214.151 41.487 214.484 41.1697 214.899 40.9268C215.314 40.6761 215.753 40.5508 216.215 40.5508C216.646 40.5508 217.038 40.6409 217.39 40.8211C217.743 40.9934 218.048 41.2324 218.307 41.5379C218.573 41.8356 218.777 42.1725 218.918 42.5485C219.067 42.9245 219.141 43.3163 219.141 43.7236C219.141 44.2877 219.024 44.8126 218.788 45.2983C218.553 45.7762 218.224 46.1601 217.801 46.4499C217.386 46.7398 216.9 46.8847 216.344 46.8847ZM216.203 46.3559C216.564 46.3559 216.885 46.2815 217.167 46.1327C217.457 45.9838 217.703 45.784 217.907 45.5333C218.111 45.2826 218.268 45.0006 218.377 44.6872C218.487 44.3739 218.542 44.0527 218.542 43.7236C218.542 43.3711 218.479 43.0381 218.354 42.7248C218.228 42.4036 218.052 42.1215 217.825 41.8787C217.606 41.6358 217.347 41.4439 217.049 41.3029C216.759 41.154 216.442 41.0796 216.097 41.0796C215.886 41.0796 215.659 41.1227 215.416 41.2089C215.181 41.295 214.954 41.4165 214.734 41.5731C214.523 41.7298 214.346 41.91 214.205 42.1137C214.064 42.3096 213.978 42.5133 213.947 42.7248V44.7343C214.088 45.032 214.268 45.3062 214.488 45.5568C214.715 45.7997 214.977 45.9956 215.275 46.1444C215.573 46.2854 215.882 46.3559 216.203 46.3559Z" fill="white"/>
<path d="M206.543 45.0045C206.543 44.6363 206.653 44.319 206.872 44.0527C207.091 43.7785 207.393 43.567 207.777 43.4181C208.161 43.2614 208.603 43.1831 209.105 43.1831C209.418 43.1831 209.743 43.2105 210.08 43.2653C210.417 43.3202 210.719 43.3946 210.985 43.4886V42.9128C210.985 42.3487 210.82 41.8983 210.491 41.5614C210.17 41.2245 209.724 41.0561 209.152 41.0561C208.846 41.0561 208.529 41.1188 208.2 41.2441C207.871 41.3695 207.534 41.5496 207.189 41.7847L206.943 41.3616C207.342 41.0953 207.726 40.8955 208.094 40.7623C208.47 40.6213 208.842 40.5508 209.211 40.5508C209.939 40.5508 210.515 40.7662 210.938 41.1971C211.361 41.628 211.573 42.2156 211.573 42.9598V45.9916C211.573 46.0857 211.592 46.1562 211.631 46.2032C211.678 46.2502 211.745 46.2776 211.831 46.2854V46.7672C211.761 46.7751 211.702 46.779 211.655 46.779C211.608 46.779 211.569 46.779 211.537 46.779C211.388 46.7555 211.271 46.6928 211.185 46.591C211.106 46.4891 211.063 46.3755 211.055 46.2502V45.7684C210.773 46.1209 210.409 46.3951 209.963 46.591C209.524 46.7868 209.062 46.8847 208.576 46.8847C208.192 46.8847 207.843 46.8025 207.53 46.638C207.225 46.4735 206.982 46.2502 206.802 45.9681C206.629 45.6783 206.543 45.3571 206.543 45.0045ZM210.75 45.5098C210.828 45.408 210.887 45.3101 210.926 45.2161C210.965 45.122 210.985 45.0359 210.985 44.9575V43.9469C210.703 43.8372 210.409 43.755 210.104 43.7001C209.798 43.6453 209.485 43.6179 209.164 43.6179C208.552 43.6179 208.055 43.7393 207.671 43.9822C207.295 44.225 207.107 44.5541 207.107 44.9693C207.107 45.2278 207.174 45.4668 207.307 45.6861C207.44 45.9055 207.624 46.0817 207.859 46.2149C208.102 46.3481 208.38 46.4147 208.693 46.4147C209.132 46.4147 209.536 46.3324 209.904 46.1679C210.28 45.9956 210.562 45.7762 210.75 45.5098Z" fill="white"/>
<path d="M198.535 42.535C198.535 42.0336 198.621 41.54 198.794 41.0543C198.974 40.5607 199.232 40.1142 199.569 39.7147C199.906 39.3073 200.317 38.9822 200.803 38.7393C201.297 38.4964 201.857 38.375 202.484 38.375C203.228 38.375 203.862 38.5474 204.387 38.8921C204.912 39.2289 205.304 39.6637 205.562 40.1965L205.069 40.4785C204.873 40.0946 204.63 39.7891 204.34 39.5619C204.058 39.3347 203.753 39.1741 203.424 39.0801C203.095 38.9782 202.766 38.9273 202.437 38.9273C201.912 38.9273 201.442 39.0331 201.026 39.2446C200.619 39.4561 200.274 39.7382 199.992 40.0907C199.71 40.4432 199.495 40.8349 199.346 41.2658C199.205 41.6967 199.134 42.1315 199.134 42.5702C199.134 43.0638 199.221 43.5338 199.393 43.9804C199.565 44.4191 199.8 44.8108 200.098 45.1555C200.404 45.5002 200.756 45.7744 201.156 45.9781C201.563 46.1818 202.002 46.2836 202.472 46.2836C202.809 46.2836 203.15 46.2288 203.494 46.1191C203.847 46.0016 204.176 45.8253 204.481 45.5903C204.787 45.3475 205.034 45.0341 205.222 44.6502L205.739 44.897C205.559 45.3122 205.288 45.6647 204.928 45.9546C204.568 46.2445 204.168 46.4638 203.729 46.6127C203.291 46.7615 202.856 46.836 202.425 46.836C201.861 46.836 201.34 46.7145 200.862 46.4717C200.384 46.221 199.969 45.8919 199.616 45.4846C199.272 45.0693 199.005 44.6071 198.817 44.0979C198.629 43.5808 198.535 43.0599 198.535 42.535Z" fill="white"/>
<path d="M194.127 46.7656L189.896 42.3236C189.559 41.9632 189.289 41.6577 189.085 41.407C188.882 41.1485 188.737 40.9174 188.651 40.7137C188.564 40.5022 188.521 40.2985 188.521 40.1026C188.521 39.7736 188.611 39.4759 188.792 39.2095C188.972 38.9353 189.215 38.7199 189.52 38.5632C189.834 38.3987 190.182 38.3164 190.566 38.3164C190.926 38.3164 191.248 38.3869 191.53 38.5279C191.812 38.6611 192.031 38.8491 192.188 39.092C192.352 39.327 192.435 39.6012 192.435 39.9146C192.435 40.2515 192.333 40.5609 192.129 40.8429C191.933 41.1171 191.671 41.3757 191.342 41.6185C191.02 41.8614 190.676 42.1043 190.308 42.3471C189.978 42.5743 189.669 42.8054 189.379 43.0404C189.097 43.2676 188.87 43.5144 188.698 43.7808C188.533 44.0471 188.451 44.3527 188.451 44.6974C188.451 45.0734 188.557 45.3868 188.768 45.6375C188.98 45.8882 189.246 46.0801 189.567 46.2133C189.896 46.3386 190.229 46.4013 190.566 46.4013C191.013 46.4013 191.42 46.3034 191.788 46.1075C192.156 45.9038 192.474 45.6296 192.74 45.2849C193.014 44.9324 193.222 44.5329 193.363 44.0863C193.512 43.6398 193.586 43.1697 193.586 42.6761H194.103C194.103 43.2402 194.013 43.7729 193.833 44.2743C193.661 44.7757 193.414 45.2223 193.093 45.614C192.771 46.0057 192.391 46.3151 191.953 46.5423C191.514 46.7695 191.028 46.8831 190.496 46.8831C190.033 46.8831 189.602 46.793 189.203 46.6128C188.803 46.4327 188.482 46.178 188.239 45.849C187.996 45.52 187.875 45.1283 187.875 44.6739C187.875 44.2587 187.973 43.8944 188.169 43.581C188.365 43.2676 188.623 42.9856 188.944 42.7349C189.266 42.4764 189.606 42.2257 189.967 41.9828C190.351 41.7321 190.687 41.501 190.977 41.2895C191.267 41.0701 191.49 40.8547 191.647 40.6432C191.812 40.4238 191.894 40.1888 191.894 39.9381C191.894 39.6091 191.765 39.3388 191.506 39.1272C191.255 38.9079 190.938 38.7982 190.554 38.7982C190.272 38.7982 190.018 38.857 189.79 38.9745C189.571 39.092 189.395 39.2487 189.262 39.4445C189.136 39.6404 189.074 39.8558 189.074 40.0909C189.074 40.224 189.105 40.369 189.168 40.5257C189.23 40.6745 189.352 40.8664 189.532 41.1015C189.712 41.3287 189.975 41.6224 190.319 41.9828L194.914 46.7656H194.127Z" fill="white"/>
<path d="M184.158 46.4711C184.119 46.4868 184.04 46.526 183.923 46.5887C183.805 46.6513 183.656 46.7101 183.476 46.7649C183.296 46.8119 183.096 46.8354 182.877 46.8354C182.665 46.8354 182.465 46.7963 182.277 46.7179C182.097 46.6317 181.952 46.5064 181.843 46.3419C181.733 46.1774 181.678 45.9776 181.678 45.7426V41.136H180.82V40.6542H181.678V38.5625H182.266V40.6542H183.688V41.136H182.266V45.6015C182.281 45.8287 182.364 46.0011 182.512 46.1186C182.661 46.2283 182.834 46.2831 183.03 46.2831C183.272 46.2831 183.484 46.244 183.664 46.1656C183.844 46.0794 183.95 46.0246 183.981 46.0011L184.158 46.4711Z" fill="white"/>
<path d="M179.713 46.7672H179.125V43.3593C179.125 42.5759 179.012 42.004 178.785 41.6437C178.565 41.2754 178.213 41.0913 177.727 41.0913C177.382 41.0913 177.042 41.1736 176.705 41.3381C176.376 41.5026 176.086 41.7298 175.835 42.0197C175.592 42.3017 175.416 42.6229 175.306 42.9833V46.7672H174.719V40.6565H175.271V42.1137C175.436 41.8003 175.655 41.5301 175.929 41.3029C176.203 41.0678 176.509 40.8837 176.846 40.7506C177.183 40.6174 177.531 40.5508 177.892 40.5508C178.228 40.5508 178.511 40.6135 178.738 40.7388C178.973 40.8563 179.161 41.0287 179.302 41.2559C179.451 41.4831 179.556 41.7651 179.619 42.102C179.682 42.4388 179.713 42.8227 179.713 43.2536V46.7672Z" fill="white"/>
<path d="M170.465 46.8847C170.035 46.8847 169.635 46.8025 169.267 46.638C168.899 46.4656 168.577 46.2345 168.303 45.9446C168.037 45.6469 167.825 45.3062 167.669 44.9223C167.52 44.5306 167.445 44.1193 167.445 43.6884C167.445 43.1087 167.575 42.5838 167.833 42.1137C168.092 41.6437 168.448 41.2676 168.902 40.9856C169.357 40.6957 169.866 40.5508 170.43 40.5508C171.01 40.5508 171.523 40.6957 171.97 40.9856C172.416 41.2754 172.769 41.6593 173.027 42.1372C173.294 42.6073 173.427 43.1243 173.427 43.6884C173.427 43.7354 173.427 43.7824 173.427 43.8294C173.427 43.8764 173.423 43.9156 173.415 43.9469H168.056C168.088 44.4091 168.217 44.8283 168.444 45.2043C168.671 45.5803 168.961 45.8781 169.314 46.0974C169.674 46.3089 170.066 46.4147 170.489 46.4147C170.912 46.4147 171.311 46.305 171.688 46.0857C172.064 45.8663 172.326 45.5843 172.475 45.2396L172.992 45.3806C172.874 45.6704 172.686 45.929 172.428 46.1562C172.177 46.3834 171.879 46.5635 171.535 46.6967C171.198 46.8221 170.841 46.8847 170.465 46.8847ZM168.033 43.4886H172.863C172.831 43.0107 172.706 42.5877 172.487 42.2195C172.267 41.8513 171.977 41.5614 171.617 41.3499C171.264 41.1383 170.873 41.0326 170.442 41.0326C170.011 41.0326 169.619 41.1383 169.267 41.3499C168.914 41.5614 168.628 41.8513 168.409 42.2195C168.19 42.5877 168.064 43.0107 168.033 43.4886Z" fill="white"/>
<path d="M166.095 46.7672H165.508V43.3593C165.508 42.5838 165.386 42.0119 165.143 41.6437C164.908 41.2754 164.544 41.0913 164.05 41.0913C163.549 41.0913 163.103 41.2715 162.711 41.6319C162.327 41.9844 162.057 42.4388 161.9 42.9951V46.7672H161.312V43.3593C161.312 42.5759 161.195 42.004 160.96 41.6437C160.725 41.2754 160.361 41.0913 159.867 41.0913C159.366 41.0913 158.919 41.2676 158.527 41.6202C158.143 41.9649 157.869 42.4192 157.705 42.9833V46.7672H157.117V40.6565H157.67V42.1137C157.928 41.6123 158.261 41.2284 158.668 40.9621C159.076 40.6879 159.522 40.5508 160.008 40.5508C160.517 40.5508 160.932 40.7035 161.254 41.0091C161.583 41.3068 161.779 41.7063 161.841 42.2077C162.131 41.6593 162.476 41.248 162.875 40.9738C163.275 40.6918 163.729 40.5508 164.238 40.5508C164.575 40.5508 164.857 40.6135 165.085 40.7388C165.32 40.8563 165.512 41.0326 165.66 41.2676C165.817 41.4948 165.927 41.7768 165.989 42.1137C166.06 42.4506 166.095 42.8305 166.095 43.2536V46.7672Z" fill="white"/>
<path d="M152.864 46.8847C152.433 46.8847 152.033 46.8025 151.665 46.638C151.297 46.4656 150.976 46.2345 150.702 45.9446C150.435 45.6469 150.224 45.3062 150.067 44.9223C149.918 44.5306 149.844 44.1193 149.844 43.6884C149.844 43.1087 149.973 42.5838 150.232 42.1137C150.49 41.6437 150.847 41.2676 151.301 40.9856C151.755 40.6957 152.265 40.5508 152.829 40.5508C153.408 40.5508 153.921 40.6957 154.368 40.9856C154.815 41.2754 155.167 41.6593 155.426 42.1372C155.692 42.6073 155.825 43.1243 155.825 43.6884C155.825 43.7354 155.825 43.7824 155.825 43.8294C155.825 43.8764 155.821 43.9156 155.813 43.9469H150.455C150.486 44.4091 150.615 44.8283 150.843 45.2043C151.07 45.5803 151.36 45.8781 151.712 46.0974C152.073 46.3089 152.464 46.4147 152.887 46.4147C153.31 46.4147 153.71 46.305 154.086 46.0857C154.462 45.8663 154.724 45.5843 154.873 45.2396L155.39 45.3806C155.273 45.6704 155.085 45.929 154.826 46.1562C154.576 46.3834 154.278 46.5635 153.933 46.6967C153.596 46.8221 153.24 46.8847 152.864 46.8847ZM150.431 43.4886H155.261C155.23 43.0107 155.104 42.5877 154.885 42.2195C154.666 41.8513 154.376 41.5614 154.015 41.3499C153.663 41.1383 153.271 41.0326 152.84 41.0326C152.409 41.0326 152.018 41.1383 151.665 41.3499C151.313 41.5614 151.027 41.8513 150.807 42.2195C150.588 42.5877 150.463 43.0107 150.431 43.4886Z" fill="white"/>
<path d="M145.535 46.8612C145.12 46.8612 144.732 46.7751 144.372 46.6027C144.019 46.4304 143.714 46.1953 143.455 45.8976C143.205 45.5921 143.005 45.2552 142.856 44.887C142.715 44.511 142.645 44.1232 142.645 43.7236C142.645 43.3084 142.711 42.9089 142.844 42.525C142.985 42.1411 143.181 41.8043 143.432 41.5144C143.69 41.2167 143.992 40.9817 144.337 40.8093C144.681 40.637 145.065 40.5508 145.488 40.5508C146.021 40.5508 146.483 40.6918 146.875 40.9738C147.275 41.248 147.611 41.5849 147.886 41.9844V40.6565H148.426V46.8847C148.426 47.4331 148.293 47.8954 148.027 48.2714C147.76 48.6474 147.408 48.9256 146.969 49.1057C146.53 49.2938 146.056 49.3878 145.547 49.3878C144.834 49.3878 144.266 49.2585 143.843 49C143.428 48.7415 143.091 48.4007 142.833 47.9776L143.232 47.7073C143.475 48.1147 143.804 48.4163 144.219 48.6122C144.634 48.808 145.077 48.906 145.547 48.906C145.962 48.906 146.342 48.8276 146.687 48.6709C147.04 48.5221 147.318 48.2949 147.521 47.9894C147.733 47.6917 147.839 47.3235 147.839 46.8847V45.5451C147.596 45.9446 147.263 46.2658 146.84 46.5087C146.425 46.7437 145.99 46.8612 145.535 46.8612ZM145.676 46.3559C145.935 46.3559 146.186 46.3089 146.428 46.2149C146.671 46.1209 146.895 45.9956 147.098 45.8389C147.302 45.6744 147.47 45.4942 147.604 45.2983C147.737 45.1025 147.815 44.9066 147.839 44.7108V42.7013C147.721 42.3879 147.541 42.1098 147.298 41.8669C147.063 41.6162 146.797 41.4243 146.499 41.2911C146.201 41.1501 145.896 41.0796 145.582 41.0796C145.214 41.0796 144.885 41.1579 144.595 41.3146C144.305 41.4713 144.059 41.6789 143.855 41.9374C143.659 42.1881 143.506 42.4741 143.397 42.7953C143.295 43.1087 143.244 43.422 143.244 43.7354C143.244 44.0879 143.307 44.4209 143.432 44.7343C143.557 45.0476 143.73 45.3297 143.949 45.5803C144.176 45.8232 144.435 46.0151 144.725 46.1562C145.022 46.2893 145.339 46.3559 145.676 46.3559Z" fill="white"/>
<path d="M136.254 45.0045C136.254 44.6363 136.364 44.319 136.583 44.0527C136.802 43.7785 137.104 43.567 137.488 43.4181C137.872 43.2614 138.314 43.1831 138.816 43.1831C139.129 43.1831 139.454 43.2105 139.791 43.2653C140.128 43.3202 140.43 43.3946 140.696 43.4886V42.9128C140.696 42.3487 140.531 41.8983 140.202 41.5614C139.881 41.2245 139.435 41.0561 138.863 41.0561C138.557 41.0561 138.24 41.1188 137.911 41.2441C137.582 41.3695 137.245 41.5496 136.9 41.7847L136.653 41.3616C137.053 41.0953 137.437 40.8955 137.805 40.7623C138.181 40.6213 138.553 40.5508 138.921 40.5508C139.65 40.5508 140.226 40.7662 140.649 41.1971C141.072 41.628 141.283 42.2156 141.283 42.9598V45.9916C141.283 46.0857 141.303 46.1562 141.342 46.2032C141.389 46.2502 141.456 46.2776 141.542 46.2854V46.7672C141.471 46.7751 141.413 46.779 141.366 46.779C141.319 46.779 141.28 46.779 141.248 46.779C141.099 46.7555 140.982 46.6928 140.896 46.591C140.817 46.4891 140.774 46.3755 140.766 46.2502V45.7684C140.484 46.1209 140.12 46.3951 139.674 46.591C139.235 46.7868 138.773 46.8847 138.287 46.8847C137.903 46.8847 137.554 46.8025 137.241 46.638C136.935 46.4735 136.693 46.2502 136.512 45.9681C136.34 45.6783 136.254 45.3571 136.254 45.0045ZM140.461 45.5098C140.539 45.408 140.598 45.3101 140.637 45.2161C140.676 45.122 140.696 45.0359 140.696 44.9575V43.9469C140.414 43.8372 140.12 43.755 139.815 43.7001C139.509 43.6453 139.196 43.6179 138.874 43.6179C138.263 43.6179 137.766 43.7393 137.382 43.9822C137.006 44.225 136.818 44.5541 136.818 44.9693C136.818 45.2278 136.885 45.4668 137.018 45.6861C137.151 45.9055 137.335 46.0817 137.57 46.2149C137.813 46.3481 138.091 46.4147 138.404 46.4147C138.843 46.4147 139.247 46.3324 139.615 46.1679C139.991 45.9956 140.273 45.7762 140.461 45.5098Z" fill="white"/>
<path d="M134.983 46.7672H134.395V43.3593C134.395 42.5759 134.281 42.004 134.054 41.6437C133.835 41.2754 133.482 41.0913 132.997 41.0913C132.652 41.0913 132.311 41.1736 131.974 41.3381C131.645 41.5026 131.355 41.7298 131.105 42.0197C130.862 42.3017 130.686 42.6229 130.576 42.9833V46.7672H129.988V40.6565H130.541V42.1137C130.705 41.8003 130.924 41.5301 131.199 41.3029C131.473 41.0678 131.778 40.8837 132.115 40.7506C132.452 40.6174 132.801 40.5508 133.161 40.5508C133.498 40.5508 133.78 40.6135 134.007 40.7388C134.242 40.8563 134.43 41.0287 134.571 41.2559C134.72 41.4831 134.826 41.7651 134.889 42.102C134.951 42.4388 134.983 42.8227 134.983 43.2536V46.7672Z" fill="white"/>
<path d="M123.172 45.0045C123.172 44.6363 123.282 44.319 123.501 44.0527C123.72 43.7785 124.022 43.567 124.406 43.4181C124.79 43.2614 125.232 43.1831 125.734 43.1831C126.047 43.1831 126.372 43.2105 126.709 43.2653C127.046 43.3202 127.348 43.3946 127.614 43.4886V42.9128C127.614 42.3487 127.449 41.8983 127.12 41.5614C126.799 41.2245 126.353 41.0561 125.781 41.0561C125.475 41.0561 125.158 41.1188 124.829 41.2441C124.5 41.3695 124.163 41.5496 123.818 41.7847L123.571 41.3616C123.971 41.0953 124.355 40.8955 124.723 40.7623C125.099 40.6213 125.471 40.5508 125.839 40.5508C126.568 40.5508 127.144 40.7662 127.567 41.1971C127.99 41.628 128.201 42.2156 128.201 42.9598V45.9916C128.201 46.0857 128.221 46.1562 128.26 46.2032C128.307 46.2502 128.374 46.2776 128.46 46.2854V46.7672C128.389 46.7751 128.331 46.779 128.284 46.779C128.237 46.779 128.198 46.779 128.166 46.779C128.017 46.7555 127.9 46.6928 127.814 46.591C127.735 46.4891 127.692 46.3755 127.684 46.2502V45.7684C127.402 46.1209 127.038 46.3951 126.592 46.591C126.153 46.7868 125.691 46.8847 125.205 46.8847C124.821 46.8847 124.472 46.8025 124.159 46.638C123.853 46.4735 123.611 46.2502 123.43 45.9681C123.258 45.6783 123.172 45.3571 123.172 45.0045ZM127.379 45.5098C127.457 45.408 127.516 45.3101 127.555 45.2161C127.594 45.122 127.614 45.0359 127.614 44.9575V43.9469C127.332 43.8372 127.038 43.755 126.733 43.7001C126.427 43.6453 126.114 43.6179 125.792 43.6179C125.181 43.6179 124.684 43.7393 124.3 43.9822C123.924 44.225 123.736 44.5541 123.736 44.9693C123.736 45.2278 123.803 45.4668 123.936 45.6861C124.069 45.9055 124.253 46.0817 124.488 46.2149C124.731 46.3481 125.009 46.4147 125.322 46.4147C125.761 46.4147 126.165 46.3324 126.533 46.1679C126.909 45.9956 127.191 45.7762 127.379 45.5098Z" fill="white"/>
<path d="M121.126 46.7653V39.5853L117.848 45.2024H117.448L114.17 39.5853V46.7653H113.57V38.4219H114.17L117.648 44.3916L121.126 38.4219H121.726V46.7653H121.126Z" fill="white"/>
<path d="M108.653 46.766L106.267 43.4991L104.822 44.827V46.766H104.234V38.1875H104.822V44.1689L108.547 40.667H109.217L106.667 43.1466L109.299 46.766H108.653Z" fill="white"/>
<path d="M100.538 46.8847C100.052 46.8847 99.6018 46.8025 99.1866 46.638C98.7714 46.4735 98.4071 46.2228 98.0938 45.8859L98.364 45.4746C98.7009 45.7958 99.0417 46.0308 99.3864 46.1797C99.7311 46.3207 100.107 46.3912 100.515 46.3912C101.039 46.3912 101.462 46.2815 101.784 46.0622C102.113 45.8428 102.277 45.5373 102.277 45.1456C102.277 44.8792 102.199 44.6755 102.042 44.5345C101.893 44.3856 101.674 44.2681 101.384 44.1819C101.102 44.0879 100.757 43.99 100.35 43.8882C99.9348 43.7785 99.5823 43.6649 99.2924 43.5474C99.0104 43.4299 98.7988 43.2771 98.6578 43.0891C98.5168 42.901 98.4463 42.6464 98.4463 42.3252C98.4463 41.9257 98.5442 41.5966 98.7401 41.3381C98.9438 41.0718 99.214 40.8759 99.5509 40.7506C99.8956 40.6174 100.276 40.5508 100.691 40.5508C101.169 40.5508 101.584 40.6291 101.936 40.7858C102.297 40.9425 102.571 41.1501 102.759 41.4086L102.442 41.7847C102.246 41.534 101.991 41.3499 101.678 41.2324C101.365 41.107 101.02 41.0443 100.644 41.0443C100.362 41.0443 100.095 41.0835 99.8447 41.1619C99.594 41.2402 99.3903 41.3695 99.2336 41.5496C99.0848 41.722 99.0104 41.957 99.0104 42.2547C99.0104 42.4898 99.0652 42.6739 99.1749 42.807C99.2924 42.9402 99.4647 43.0499 99.6919 43.1361C99.9191 43.2144 100.201 43.3006 100.538 43.3946C101.016 43.5121 101.427 43.6335 101.772 43.7589C102.117 43.8842 102.383 44.0488 102.571 44.2524C102.759 44.4483 102.853 44.7264 102.853 45.0868C102.853 45.643 102.642 46.0817 102.218 46.4029C101.795 46.7241 101.235 46.8847 100.538 46.8847Z" fill="white"/>
<path d="M96.1797 46.766V40.6553H96.7673V46.766H96.1797ZM96.1797 39.2686V38.1875H96.7673V39.2686H96.1797Z" fill="white"/>
<path d="M88.7812 46.7653V38.4219H92.2479C92.6083 38.4219 92.9334 38.4963 93.2233 38.6452C93.521 38.794 93.7756 38.9938 93.9871 39.2445C94.2064 39.4873 94.3749 39.7615 94.4924 40.0671C94.6177 40.3726 94.6804 40.686 94.6804 41.0072C94.6804 41.4224 94.5982 41.8102 94.4336 42.1705C94.2691 42.5309 94.038 42.8325 93.7403 43.0754C93.4504 43.3183 93.1097 43.4671 92.7179 43.522L94.7979 46.7653H94.1046L92.0834 43.616H89.3806V46.7653H88.7812ZM89.3806 43.0636H92.3066C92.667 43.0636 92.9804 42.9657 93.2468 42.7699C93.5131 42.574 93.7168 42.3194 93.8578 42.006C94.0067 41.6927 94.0811 41.3597 94.0811 41.0072C94.0811 40.6468 93.9949 40.3138 93.8226 40.0083C93.6581 39.6949 93.4348 39.4442 93.1527 39.2562C92.8785 39.0604 92.5691 38.9624 92.2244 38.9624H89.3806V43.0636Z" fill="white"/>
<path d="M81.3326 46.8847C80.9017 46.8847 80.5022 46.8025 80.134 46.638C79.7657 46.4656 79.4445 46.2345 79.1703 45.9446C78.904 45.6469 78.6925 45.3062 78.5358 44.9223C78.3869 44.5306 78.3125 44.1193 78.3125 43.6884C78.3125 43.1087 78.4418 42.5838 78.7003 42.1137C78.9588 41.6437 79.3153 41.2676 79.7697 40.9856C80.2241 40.6957 80.7333 40.5508 81.2973 40.5508C81.8771 40.5508 82.3902 40.6957 82.8368 40.9856C83.2833 41.2754 83.6359 41.6593 83.8944 42.1372C84.1607 42.6073 84.2939 43.1243 84.2939 43.6884C84.2939 43.7354 84.2939 43.7824 84.2939 43.8294C84.2939 43.8764 84.29 43.9156 84.2822 43.9469H78.9236C78.9549 44.4091 79.0842 44.8283 79.3114 45.2043C79.5386 45.5803 79.8284 45.8781 80.181 46.0974C80.5413 46.3089 80.933 46.4147 81.3561 46.4147C81.7791 46.4147 82.1787 46.305 82.5547 46.0857C82.9308 45.8663 83.1932 45.5843 83.3421 45.2396L83.8591 45.3806C83.7416 45.6704 83.5536 45.929 83.2951 46.1562C83.0444 46.3834 82.7467 46.5635 82.402 46.6967C82.0651 46.8221 81.7086 46.8847 81.3326 46.8847ZM78.9001 43.4886H83.7299C83.6985 43.0107 83.5732 42.5877 83.3538 42.2195C83.1345 41.8513 82.8446 41.5614 82.4842 41.3499C82.1317 41.1383 81.74 41.0326 81.3091 41.0326C80.8782 41.0326 80.4865 41.1383 80.134 41.3499C79.7814 41.5614 79.4955 41.8513 79.2761 42.2195C79.0568 42.5877 78.9314 43.0107 78.9001 43.4886Z" fill="white"/>
<path d="M71.082 43.7224C71.082 43.1505 71.2035 42.6256 71.4463 42.1477C71.6892 41.6698 72.0221 41.2859 72.4452 40.9961C72.8682 40.6984 73.35 40.5495 73.8906 40.5495C74.4233 40.5495 74.8934 40.6905 75.3008 40.9726C75.716 41.2546 76.0411 41.5915 76.2761 41.9832V38.1875H76.8637V45.9904C76.8637 46.0844 76.8833 46.1549 76.9224 46.2019C76.9694 46.2489 77.0321 46.2763 77.1105 46.2842V46.766C76.9851 46.7816 76.8911 46.7856 76.8284 46.7777C76.6874 46.7542 76.5699 46.6876 76.4759 46.5779C76.3819 46.4683 76.3349 46.3508 76.3349 46.2254V45.5438C76.0842 45.9512 75.7473 46.2763 75.3243 46.5192C74.9012 46.7621 74.4664 46.8835 74.0199 46.8835C73.5968 46.8835 73.2051 46.7973 72.8447 46.625C72.4844 46.4448 72.171 46.2058 71.9046 45.9081C71.6461 45.6104 71.4424 45.2736 71.2936 44.8975C71.1525 44.5215 71.082 44.1298 71.082 43.7224ZM76.2761 44.7095V42.7C76.1664 42.4023 75.9902 42.132 75.7473 41.8892C75.5044 41.6385 75.2302 41.4426 74.9247 41.3016C74.6192 41.1528 74.3176 41.0783 74.0199 41.0783C73.6673 41.0783 73.3461 41.1528 73.0563 41.3016C72.7742 41.4505 72.5274 41.6502 72.3159 41.9009C72.1122 42.1516 71.9555 42.4376 71.8459 42.7588C71.7362 43.0721 71.6813 43.3973 71.6813 43.7341C71.6813 44.0788 71.744 44.4118 71.8694 44.733C71.9947 45.0464 72.1671 45.3284 72.3864 45.5791C72.6136 45.8219 72.8722 46.0139 73.162 46.1549C73.4597 46.2881 73.7809 46.3547 74.1256 46.3547C74.3371 46.3547 74.5604 46.3116 74.7955 46.2254C75.0383 46.1392 75.2655 46.0217 75.477 45.8729C75.6964 45.7162 75.8766 45.5399 76.0176 45.3441C76.1664 45.1404 76.2526 44.9288 76.2761 44.7095Z" fill="white"/>
<path d="M64.6875 45.0045C64.6875 44.6363 64.7972 44.319 65.0165 44.0527C65.2359 43.7785 65.5375 43.567 65.9214 43.4181C66.3053 43.2614 66.7479 43.1831 67.2493 43.1831C67.5627 43.1831 67.8878 43.2105 68.2247 43.2653C68.5615 43.3202 68.8631 43.3946 69.1295 43.4886V42.9128C69.1295 42.3487 68.965 41.8983 68.6359 41.5614C68.3147 41.2245 67.8682 41.0561 67.2963 41.0561C66.9908 41.0561 66.6735 41.1188 66.3444 41.2441C66.0154 41.3695 65.6785 41.5496 65.3338 41.7847L65.087 41.3616C65.4866 41.0953 65.8705 40.8955 66.2387 40.7623C66.6147 40.6213 66.9868 40.5508 67.3551 40.5508C68.0836 40.5508 68.6594 40.7662 69.0825 41.1971C69.5055 41.628 69.7171 42.2156 69.7171 42.9598V45.9916C69.7171 46.0857 69.7367 46.1562 69.7758 46.2032C69.8228 46.2502 69.8894 46.2776 69.9756 46.2854V46.7672C69.9051 46.7751 69.8463 46.779 69.7993 46.779C69.7523 46.779 69.7132 46.779 69.6818 46.779C69.533 46.7555 69.4155 46.6928 69.3293 46.591C69.2509 46.4891 69.2078 46.3755 69.2 46.2502V45.7684C68.918 46.1209 68.5537 46.3951 68.1071 46.591C67.6684 46.7868 67.2062 46.8847 66.7205 46.8847C66.3366 46.8847 65.988 46.8025 65.6746 46.638C65.3691 46.4735 65.1262 46.2502 64.946 45.9681C64.7737 45.6783 64.6875 45.3571 64.6875 45.0045ZM68.8945 45.5098C68.9728 45.408 69.0316 45.3101 69.0707 45.2161C69.1099 45.122 69.1295 45.0359 69.1295 44.9575V43.9469C68.8475 43.8372 68.5537 43.755 68.2482 43.7001C67.9426 43.6453 67.6292 43.6179 67.308 43.6179C66.697 43.6179 66.1995 43.7393 65.8156 43.9822C65.4396 44.225 65.2516 44.5541 65.2516 44.9693C65.2516 45.2278 65.3182 45.4668 65.4513 45.6861C65.5845 45.9055 65.7686 46.0817 66.0036 46.2149C66.2465 46.3481 66.5246 46.4147 66.838 46.4147C67.2767 46.4147 67.6802 46.3324 68.0484 46.1679C68.4244 45.9956 68.7065 45.7762 68.8945 45.5098Z" fill="white"/>
<path d="M64.1252 41.1851C63.5768 41.2008 63.095 41.3653 62.6798 41.6787C62.2724 41.9842 61.9865 42.4073 61.8219 42.9478V46.767H61.2344V40.6563H61.7984V42.1605C62.01 41.7296 62.292 41.381 62.6445 41.1146C62.9971 40.8404 63.3692 40.6837 63.7609 40.6446C63.8393 40.6367 63.9098 40.6328 63.9724 40.6328C64.0351 40.6328 64.086 40.6328 64.1252 40.6328V41.1851Z" fill="white"/>
<path d="M61.2608 38.9624H58.2054V46.7653H57.6061V38.9624H54.5508V38.4219H61.2608V38.9624Z" fill="white"/>
<defs>
<linearGradient id="paint0_linear_441_1674" x1="12.1469" y1="1.42857" x2="28.9279" y2="60.003" gradientUnits="userSpaceOnUse">
<stop stop-color="#F3D59B"/>
<stop offset="1" stop-color="#AB763C"/>
</linearGradient>
</defs>
</svg>
