<svg width="73" height="632" viewBox="0 0 73 632" fill="none" xmlns="http://www.w3.org/2000/svg">
<path d="M-283.926 338.679L-283.926 338.179L-284.426 338.179L-370.5 338.179L-370.5 124.137L-149 0.57249L72.5 124.137L72.5 507.863L-149 631.427L-370.5 507.863L-370.5 383.082L-328.213 383.082L-328.213 470.688L-328.213 470.982L-327.957 471.125L-149.244 570.81L-149 570.945L-148.756 570.81L29.9567 471.125L30.2131 470.982L30.2131 470.688L30.2131 161.312L30.2131 161.018L29.9567 160.875L-148.756 61.1778L-149 61.042L-149.244 61.1778L-327.957 160.875L-328.213 161.018L-328.213 161.312L-328.213 293.522L-328.213 294.022L-327.713 294.022L-284.426 294.022L-283.926 294.022L-283.926 293.522L-283.926 201.657L-171.143 138.744L-171.143 199.213L-241.383 238.395L-241.639 238.538L-241.639 238.831L-241.639 293.522L-241.639 294.022L-241.139 294.022L-56.8607 294.022L-56.3607 294.022L-56.3607 293.522L-56.3607 238.831L-56.3607 238.538L-56.6171 238.395L-125.62 199.903L-125.62 139.434L-14.0738 201.657L-14.0738 435.511L-149 510.782L-283.926 435.511L-283.926 338.679ZM-56.3607 338.679L-56.3607 338.179L-56.8607 338.179L-241.139 338.179L-241.639 338.179L-241.639 338.679L-241.639 398.337L-241.639 398.63L-241.383 398.773L-149.244 450.165L-149 450.301L-148.756 450.165L-56.6171 398.773L-56.3607 398.63L-56.3607 398.337L-56.3607 338.679Z" stroke="url(#paint0_linear_439_876)"/>
<defs>
<linearGradient id="paint0_linear_439_876" x1="-149" y1="632" x2="-149" y2="-1.94079e-05" gradientUnits="userSpaceOnUse">
<stop stop-color="#F3D59B"/>
<stop offset="0.97" stop-color="#5B4B2C"/>
</linearGradient>
</defs>
</svg>
