<svg width="56" height="56" viewBox="0 0 56 56" fill="none" xmlns="http://www.w3.org/2000/svg">
<path fill-rule="evenodd" clip-rule="evenodd" d="M28 3.25C14.331 3.25 3.25 14.331 3.25 28C3.25 41.669 14.331 52.75 28 52.75C41.669 52.75 52.75 41.669 52.75 28C52.75 14.331 41.669 3.25 28 3.25ZM0.75 28C0.75 12.9502 12.9502 0.75 28 0.75C43.0498 0.75 55.25 12.9502 55.25 28C55.25 43.0498 43.0498 55.25 28 55.25C12.9502 55.25 0.75 43.0498 0.75 28Z" fill="#E5D6D6"/>
<path fill-rule="evenodd" clip-rule="evenodd" d="M23.75 16C23.75 13.6528 25.6528 11.75 28 11.75C30.3472 11.75 32.25 13.6528 32.25 16V40C32.25 42.3472 30.3472 44.25 28 44.25C25.6528 44.25 23.75 42.3472 23.75 40V16ZM28 14.25C27.0335 14.25 26.25 15.0335 26.25 16V40C26.25 40.9665 27.0335 41.75 28 41.75C28.9665 41.75 29.75 40.9665 29.75 40V16C29.75 15.0335 28.9665 14.25 28 14.25ZM16 32.25C13.6528 32.25 11.75 30.3472 11.75 28C11.75 25.6528 13.6528 23.75 16 23.75L39 23.75C41.3472 23.75 43.25 25.6528 43.25 28C43.25 30.3472 41.3472 32.25 39 32.25L16 32.25ZM14.25 28C14.25 28.9665 15.0335 29.75 16 29.75L39 29.75C39.9665 29.75 40.75 28.9665 40.75 28C40.75 27.0335 39.9665 26.25 39 26.25L16 26.25C15.0335 26.25 14.25 27.0335 14.25 28Z" fill="#E5D6D6"/>
<path d="M18 15C18 16.1046 17.1046 17 16 17C14.8954 17 14 16.1046 14 15C14 13.8954 14.8954 13 16 13C17.1046 13 18 13.8954 18 15Z" fill="#E5D6D6"/>
<path d="M37 43C37 41.8954 37.8954 41 39 41C40.1046 41 41 41.8954 41 43C41 44.1046 40.1046 45 39 45C37.8954 45 37 44.1046 37 43Z" fill="#E5D6D6"/>
<path d="M13 20C13 20.5523 12.5523 21 12 21C11.4477 21 11 20.5523 11 20C11 19.4477 11.4477 19 12 19C12.5523 19 13 19.4477 13 20Z" fill="#E5D6D6"/>
<path d="M42 38C42 37.4477 42.4477 37 43 37C43.5523 37 44 37.4477 44 38C44 38.5523 43.5523 39 43 39C42.4477 39 42 38.5523 42 38Z" fill="#E5D6D6"/>
</svg>
